<?xml version="1.0" standalone="no"?>
<!DOCTYPE svg PUBLIC "-//W3C//DTD SVG 20010904//EN"
 "http://www.w3.org/TR/2001/REC-SVG-20010904/DTD/svg10.dtd">
<svg version="1.0" xmlns="http://www.w3.org/2000/svg"
 width="542.000000pt" height="289.000000pt" viewBox="0 0 542.000000 289.000000"
 preserveAspectRatio="xMidYMid meet">
<metadata>
Created by potrace 1.16, written by Peter Selinger 2001-2019
</metadata>
<g transform="translate(0.000000,289.000000) scale(0.100000,-0.100000)"
fill="#000000" stroke="none">
<path d="M730 2803 c-8 -3 -36 -21 -62 -40 l-48 -34 0 -1271 c0 -933 3 -1274
11 -1284 10 -12 147 -14 809 -14 789 0 798 0 803 -20 5 -20 14 -20 477 -20
463 0 472 0 477 20 5 20 14 20 794 20 l788 0 17 32 c11 22 14 44 10 75 -3 24
-6 586 -6 1249 l0 1205 -32 31 c-64 62 84 58 -2060 57 -1080 0 -1970 -3 -1978
-6z m3914 -179 c14 -5 16 -28 16 -155 0 -82 -3 -149 -7 -149 -5 0 -7 37 -6 82
2 46 -3 102 -9 126 -11 38 -15 42 -45 42 -29 0 -33 -3 -34 -27 -1 -16 -5 -82
-9 -148 -6 -120 -7 -120 -9 -35 -2 69 -4 81 -13 63 -6 -13 -17 -23 -25 -23
-17 0 -38 20 -39 38 -2 29 -5 32 -30 32 -23 0 -26 4 -22 25 3 13 1 22 -3 19
-5 -3 -9 -13 -9 -22 -1 -16 -1 -16 -11 1 -9 16 -49 17 -577 19 -312 2 -485 4
-384 5 l182 3 0 25 0 25 -1420 0 -1420 0 0 23 c0 13 3 27 7 30 8 9 3845 9
3867 1z m-1606 -334 c-3 -38 11 -55 27 -30 10 16 22 12 28 -10 3 -13 0 -20
-10 -20 -12 0 -12 -2 1 -16 20 -19 21 -34 2 -34 -7 0 -19 14 -26 31 -11 24
-15 28 -22 16 -4 -9 -24 -25 -44 -37 -34 -22 -35 -24 -28 -68 5 -32 4 -43 -5
-38 -6 4 -11 14 -11 22 0 10 -9 14 -27 12 -22 -2 -29 2 -31 20 -3 18 -8 21
-29 16 -19 -5 -24 -3 -21 7 3 8 18 14 34 14 24 0 31 6 39 33 5 19 14 31 21 28
7 -3 18 1 24 9 6 8 24 15 38 17 23 3 27 8 27 36 0 17 4 32 8 32 5 0 7 -18 5
-40z m-134 -255 c9 -13 16 -37 16 -53 l0 -29 90 -7 90 -8 0 -45 c0 -45 0 -45
-30 -39 -17 3 -30 1 -30 -4 0 -6 13 -10 29 -10 28 0 29 -2 29 -46 0 -46 0 -46
-29 -40 -16 3 -29 1 -29 -4 0 -6 14 -10 30 -10 20 0 30 -5 30 -15 0 -10 -10
-15 -30 -15 -16 0 -30 -4 -30 -10 0 -5 11 -10 24 -10 29 0 38 -10 27 -29 -5
-8 -17 -11 -30 -6 -12 4 -21 2 -21 -4 0 -6 11 -11 25 -11 16 0 25 -6 25 -15 0
-10 -10 -15 -31 -15 -16 0 -28 -4 -25 -9 3 -4 17 -6 31 -3 22 4 25 1 25 -23 0
-24 -3 -26 -24 -21 -14 3 -28 2 -31 -4 -4 -6 6 -10 24 -10 21 0 31 -5 31 -15
0 -10 -10 -15 -31 -15 -18 0 -28 -4 -24 -10 4 -6 10 -8 15 -5 27 17 51 -28 25
-47 -6 -5 -5 -8 3 -8 6 0 12 -7 12 -16 0 -8 -4 -12 -10 -9 -5 3 -10 0 -10 -9
0 -8 6 -17 13 -20 9 -5 9 -7 -2 -12 -11 -5 -11 -8 0 -15 10 -6 8 -9 -8 -9 -13
0 -23 5 -23 11 0 5 -4 7 -10 4 -20 -12 -9 -25 20 -25 17 0 30 -4 30 -10 0 -5
-7 -10 -16 -10 -9 0 -12 -5 -8 -12 14 -22 13 -58 -2 -58 -8 0 -14 5 -14 11 0
5 -4 7 -10 4 -18 -11 -11 -25 13 -25 21 0 23 -5 23 -42 l-1 -43 -227 -3 -228
-2 0 455 0 455 134 0 c131 0 134 0 150 -25z m1756 -187 l0 -203 -22 25 c-82
92 -94 242 -25 337 16 24 34 43 39 43 4 0 8 -91 8 -202z m-1320 20 c0 -34 48
-38 467 -38 l413 0 0 25 c0 24 2 25 65 25 59 0 66 -2 74 -22 4 -13 11 -194 14
-403 4 -298 2 -384 -8 -398 -10 -14 -28 -17 -99 -17 l-86 0 0 -80 0 -80 89 0
89 0 7 -117 c3 -65 13 -135 21 -156 10 -26 14 -70 13 -127 -2 -60 2 -94 11
-104 11 -14 5 -16 -48 -16 -55 0 -61 2 -64 22 -2 15 -10 22 -30 22 -15 1 -33
8 -40 15 -10 11 -10 12 0 7 7 -4 12 -1 12 7 0 14 -23 30 -45 32 -5 0 -15 4
-21 8 -6 3 -19 -2 -29 -13 -15 -16 -31 -20 -85 -20 -38 0 -71 5 -78 12 -16 16
-16 123 1 136 7 6 30 12 50 14 20 1 37 5 37 9 0 4 17 -1 38 -11 36 -18 37 -18
40 1 2 10 10 19 18 19 8 0 14 7 14 15 0 8 -6 15 -14 15 -8 0 -21 6 -28 13 -35
34 -167 54 -176 27 -2 -6 -8 -10 -13 -10 -6 0 -7 4 -4 10 3 6 3 10 -2 10 -4 0
-26 16 -47 35 l-39 34 26 10 c15 6 35 8 44 4 11 -4 5 7 -14 28 -102 108 -124
142 -105 161 7 7 18 2 33 -16 25 -29 69 -35 88 -12 7 9 8 27 3 52 -7 32 -13
40 -37 45 -64 14 -114 10 -135 -11 -21 -21 -40 -19 -40 3 0 9 -52 11 -210 9
l-209 -3 -104 -110 -104 -111 -31 16 c-34 17 -67 21 -58 7 6 -9 -188 -194
-214 -204 -8 -3 10 -6 40 -7 64 -2 100 -12 81 -24 -8 -5 -9 -12 -2 -19 5 -7
11 -49 13 -94 2 -67 0 -83 -12 -86 -8 -2 6 -10 33 -17 26 -7 47 -16 47 -21 0
-5 -83 -9 -185 -9 l-185 0 0 40 0 40 -43 0 c-66 0 -79 14 -75 85 2 48 7 60 21
63 13 3 17 -3 17 -27 0 -16 -4 -33 -10 -36 -5 -3 -10 -14 -10 -23 1 -13 4 -12
13 6 13 23 27 20 27 -5 0 -8 -4 -11 -10 -8 -5 3 -10 1 -10 -4 0 -17 20 -13 27
5 3 8 1 20 -6 27 -6 6 -11 26 -11 44 0 31 2 33 35 33 27 0 35 4 35 18 0 11 54
69 127 138 69 65 140 134 156 151 l30 33 31 -36 31 -35 47 48 46 48 -39 45
-38 45 -41 -43 c-46 -47 -50 -50 -43 -23 3 10 0 29 -7 41 -15 28 4 54 34 45
74 -23 91 -24 109 -7 38 34 59 74 72 135 8 34 23 104 34 156 17 78 21 130 21
292 0 193 1 198 22 213 28 20 128 22 128 4z m1320 -488 l0 -150 -70 0 -70 0 0
150 0 150 70 0 70 0 0 -150z m-966 -511 c35 -9 48 -19 70 -54 16 -24 40 -49
56 -55 15 -6 40 -25 56 -41 l28 -30 -59 7 c-48 6 -74 16 -130 54 -43 28 -71
54 -73 67 -2 16 -13 22 -52 27 -27 4 -52 11 -55 16 -12 19 96 25 159 9z
m-2513 -279 c15 -9 19 -22 19 -70 0 -61 -13 -80 -54 -80 -23 0 -20 35 4 46 15
7 4 9 -40 9 -33 0 -60 -3 -60 -7 0 -5 -9 -8 -20 -8 -17 0 -20 7 -20 40 0 59
26 80 96 80 30 0 64 -5 75 -10z m292 -6 c26 -3 47 -10 47 -15 0 -5 38 -9 85
-9 47 0 85 4 85 9 0 18 89 24 278 20 26 0 79 3 118 6 88 9 104 -3 104 -75 0
-85 27 -80 -465 -80 -491 0 -465 -4 -465 78 0 50 6 65 30 75 16 6 102 2 183
-9z m957 -4 c16 -25 12 -107 -6 -124 -22 -22 -136 -22 -158 0 -22 22 -21 107
1 129 21 22 149 18 163 -5z m708 14 c18 -5 22 -13 22 -48 0 -35 -4 -43 -27
-53 -16 -6 -47 -14 -70 -17 -34 -5 -43 -3 -43 9 0 24 -28 17 -33 -7 -2 -13 -5
5 -6 39 -1 49 3 64 17 72 19 11 104 14 140 5z m503 -4 c11 -6 19 -21 19 -35 0
-21 -5 -25 -30 -25 -34 0 -41 -17 -9 -22 18 -3 19 -5 5 -23 -12 -16 -17 -18
-27 -7 -17 16 -51 16 -67 0 -10 -10 -15 -10 -22 2 -14 21 -12 30 4 30 8 0 18
5 21 10 4 6 -6 10 -24 10 -20 0 -31 -6 -34 -17 -3 -10 -5 -1 -6 19 -1 28 5 41
21 52 26 18 119 22 149 6z m253 -6 c10 -10 16 -33 16 -64 0 -67 -16 -80 -95
-80 -81 0 -95 13 -95 85 0 66 11 74 97 75 43 0 66 -5 77 -16z m-514 -26 c11
-12 20 -29 20 -38 0 -9 -9 -26 -20 -38 -42 -45 -140 -18 -140 38 0 56 98 83
140 38z m298 -215 c-533 -2 -1403 -2 -1935 0 -533 1 -97 2 967 2 1064 0 1500
-1 968 -2z"/>
<path d="M2915 1670 c-4 -6 -9 -116 -12 -245 -6 -240 2 -296 25 -171 16 83 15
143 0 149 -10 4 -10 6 0 6 9 1 12 34 12 130 0 118 -8 159 -25 131z"/>
<path d="M4241 1801 c-8 -5 -11 -16 -8 -25 4 -10 1 -16 -7 -16 -9 0 -12 7 -9
20 5 19 0 20 -101 20 -97 0 -106 -2 -106 -19 0 -10 -7 -22 -16 -25 -24 -9 -31
-7 -11 5 9 5 17 17 17 24 0 12 -15 15 -69 15 -64 0 -70 -2 -74 -22 l-4 -23 -2
23 c-1 21 -6 22 -70 22 -64 0 -70 -2 -73 -22 -2 -12 -9 -23 -16 -24 -7 -1 -8
0 -2 3 5 2 10 13 10 23 0 17 -11 18 -139 18 l-139 0 -6 -36 c-11 -71 -11 -72
44 -71 28 1 54 -1 57 -5 3 -3 -10 -6 -30 -6 -34 0 -37 -2 -37 -29 l0 -30 65 0
65 0 0 30 c0 24 -4 29 -23 29 -20 0 -22 4 -19 40 2 22 8 42 12 45 5 3 6 -13 3
-35 -5 -37 -4 -40 19 -40 21 0 24 -4 20 -34 -4 -31 -1 -35 24 -39 16 -2 -26
-5 -93 -6 l-122 -1 -10 -32 c-16 -53 -60 -172 -71 -190 -13 -22 -13 -28 0 -28
5 0 29 40 53 90 36 74 41 90 28 93 -11 3 -9 5 5 6 13 1 24 9 27 21 7 26 27 26
34 0 5 -18 13 -20 104 -19 l99 1 0 29 c0 16 -4 29 -10 29 -5 0 -10 4 -10 9 0
5 8 7 18 4 14 -3 17 -12 14 -38 l-4 -34 66 0 66 0 0 35 c0 19 -5 34 -12 34 -6
0 -9 2 -6 5 3 3 12 3 20 0 9 -4 13 -16 10 -40 l-4 -35 106 1 106 1 0 27 c0 15
-6 33 -12 40 -11 10 -10 11 5 6 11 -5 17 -18 17 -41 0 -31 3 -34 29 -34 27 0
30 4 34 38 l4 37 1 -42 2 -43 -56 0 c-54 0 -55 0 -52 -27 l3 -28 147 -3 147
-2 -1 157 c-1 100 -5 161 -12 165 -14 10 -28 10 -45 -1z"/>
<path d="M3444 1459 c-4 -6 -10 -27 -14 -46 -8 -33 -7 -34 13 -28 23 7 123 10
440 13 l197 2 0 34 0 35 -315 0 c-218 0 -316 -3 -321 -10z"/>
<path d="M3790 583 c-26 -9 -60 -46 -60 -63 0 -42 64 -79 115 -66 33 8 59 49
51 81 -9 37 -66 63 -106 48z"/>
</g>
</svg>
