<?xml version="1.0" encoding="utf-8"?>
<!-- Generator: Adobe Illustrator 16.0.3, SVG Export Plug-In . SVG Version: 6.00 Build 0)  -->
<!DOCTYPE svg PUBLIC "-//W3C//DTD SVG 1.1//EN" "http://www.w3.org/Graphics/SVG/1.1/DTD/svg11.dtd">
<svg version="1.1" id="Capa_1" xmlns="http://www.w3.org/2000/svg" xmlns:xlink="http://www.w3.org/1999/xlink" x="0px" y="0px"
	 width="1200px" height="1200px" viewBox="0 0 1200 1200" enable-background="new 0 0 1200 1200" xml:space="preserve">
<ellipse opacity="0.7" fill="#A03972" cx="456.892" cy="454.548" rx="185.903" ry="188.161"/>
<ellipse opacity="0.7" fill="#A03972" cx="307.292" cy="314.628" rx="73.271" ry="72.974"/>
<ellipse opacity="0.7" fill="#583373" cx="389.047" cy="588.669" rx="182.792" ry="183.989"/>
<path opacity="0.7" fill="#583373" d="M99.562,595.656c0.021,15.839,69.835,83.786,88.646,83.801
	c23.653,0.019,76.114-68.275,76.151-83.474c0.046-19.796-57.075-83.494-79.399-83.476C161.738,512.527,99.54,579.094,99.562,595.656
	z"/>
<ellipse opacity="0.7" fill="#D43A4A" cx="905.799" cy="321.873" rx="73.271" ry="72.975"/>
<ellipse opacity="0.7" fill="#D43A4A" cx="760.772" cy="458.171" rx="185.903" ry="188.162"/>
<path opacity="0.7" fill="#DD8A28" d="M943.646,738.165c0,103.919-83.232,188.162-185.903,188.162
	c-102.673,0-185.904-84.243-185.904-188.162c0-103.916,83.231-188.157,185.904-188.157
	C860.413,550.008,943.646,634.249,943.646,738.165z"/>
<ellipse opacity="0.7" fill="#DC8926" cx="905.799" cy="877.202" rx="73.271" ry="72.975"/>
<ellipse opacity="0.7" fill="#383D74" cx="459.463" cy="741.893" rx="185.904" ry="188.161"/>
<ellipse opacity="0.7" fill="#373D73" cx="313.462" cy="877.202" rx="73.271" ry="72.975"/>
<ellipse opacity="0.7" fill="#509897" cx="614.231" cy="792.507" rx="185.904" ry="188.161"/>
<path opacity="0.7" fill="#4C9897" d="M522.477,1000.326c-2.155,15.688,72.966,83.607,91.776,83.624
	c21.341,0.019,80.429-68.425,80.472-83.624c0.051-17.552-66.329-83.627-86.084-83.627
	C595.271,916.699,524.533,985.362,522.477,1000.326z"/>
<ellipse opacity="0.7" fill="#DC674D" cx="820.418" cy="604.348" rx="185.904" ry="188.16"/>
<path opacity="0.7" fill="#DB664C" d="M935.845,603.861c0.02,15.84,71.444,82.907,90.254,82.923
	c22.367,0.019,90.218-67.237,90.258-82.437c0.049-17.854-70.957-87.877-90.24-87.877
	C1012.748,516.471,935.826,588.669,935.845,603.861z"/>
<ellipse opacity="0.7" fill="#DE5B88" cx="609.604" cy="398.469" rx="185.904" ry="188.162"/>
<path opacity="0.7" fill="#DD5A88" d="M520.954,191.968c0,23.42,69.838,78.03,88.649,78.045
	c24.912,0.019,87.926-60.907,87.96-76.107c0.048-21.853-63.854-86.134-87.959-86.134
	C589.744,107.772,520.954,173.61,520.954,191.968z"/>
<path opacity="0.3" d="M836.129,744.322c0,29.889-47.37,67.151-76.679,67.151h-320.27c-34.966,0-52.448-33.899-52.448-58.481
	V431.334c0-41.921,40.364-57.706,68.645-57.706c0,0,297.197,0,336.531,0c27.895,0,44.221,30.794,44.221,53.825V744.322z"/>
<path opacity="0.3" d="M877.583,542.359c21.146,20.982,14.256,81.098-6.319,102.107L646.428,874.04
	c-24.547,25.064-60.804,13.799-78.197-3.461l-227.58-225.809c-29.661-29.431-12.493-69.446,7.361-89.719
	c0,0,208.638-213.035,236.252-241.23c19.583-19.994,52.832-10.079,69.125,6.089L877.583,542.359z"/>
<g>
	<path fill="#FFFFFF" d="M570.09,537.549l2.306,0.024l-22.99,79.819h-2.997l-23.325-77.024l-23.101,77.024h-2.999l-23.435-79.819
		l2.31-0.026l22.458,76.889l23.056-76.876l3.193,0.037l23.21,77.024L570.09,537.549z"/>
	<path fill="#FFFFFF" d="M576.283,588.998c0,8.416,1.813,15.124,5.442,20.119c3.627,4.995,9.33,7.493,17.104,7.493
		c5.997,0,10.976-1.657,14.938-4.977c3.961-3.316,6.423-8.068,7.386-14.251h2.222c-0.741,6.554-3.351,11.769-7.83,15.647
		c-4.48,3.877-9.979,5.816-16.493,5.816c-8.441,0-14.716-2.742-18.826-8.23s-6.164-12.787-6.164-21.897
		c0-9.184,2.444-16.501,7.331-21.951c4.887-5.45,10.773-8.176,17.659-8.176c8.292,0,14.53,2.916,18.714,8.744
		c4.182,5.829,6.274,13.05,6.274,21.663H576.283z M621.819,586.762c0-7.494-1.963-13.691-5.887-18.589
		c-3.925-4.898-9.479-7.347-16.659-7.347c-6.369,0-11.792,2.375-16.271,7.125c-4.481,4.749-6.719,11.02-6.719,18.811H621.819z"/>
	<path fill="#FFFFFF" d="M635.147,576.03c1.479-5.366,4.22-9.614,8.219-12.744c3.998-3.13,8.958-4.695,14.882-4.695
		c7.553,0,13.494,2.914,17.826,8.737c4.331,5.823,6.497,12.992,6.497,21.502c0,8.886-2.185,16.11-6.553,21.672
		c-4.369,5.563-10.292,8.344-17.771,8.344c-5.702,0-10.569-1.594-14.604-4.781c-4.036-3.188-6.794-7.444-8.274-12.77l-0.222,16.098
		h-2.222v-79.819h2.222V576.03z M658.248,616.609c7.034,0,12.476-2.669,16.327-8.009c3.849-5.338,5.774-11.928,5.774-19.771
		c0-7.542-1.852-14.094-5.553-19.658c-3.703-5.563-9.219-8.346-16.549-8.346c-7.035,0-12.644,2.465-16.826,7.394
		c-4.184,4.929-6.274,11.799-6.274,20.609c0,7.843,2.071,14.433,6.22,19.771C645.513,613.94,651.141,616.609,658.248,616.609z"/>
	<path fill="#FFFFFF" d="M692.454,537.574h2.222v79.819h-2.222V537.574z"/>
	<path fill="#FFFFFF" d="M706.669,537.574h27.767c9.329,0,17.287,3.074,23.878,9.223c6.59,6.148,9.885,16.377,9.885,30.687
		c0,13.341-3.573,23.328-10.718,29.96c-7.146,6.633-15.976,9.949-26.488,9.949h-24.323V537.574z M708.891,615.156h22.657
		c9.995,0,18.231-3.203,24.711-9.613c6.479-6.409,9.719-15.763,9.719-28.06c0-13.638-3.055-23.326-9.163-29.065
		c-6.108-5.738-13.755-8.608-22.935-8.608h-24.989V615.156z"/>
</g>
<g>
</g>
<g>
</g>
<g>
</g>
<g>
</g>
<g>
</g>
<g>
</g>
</svg>
